<svg xmlns="http://www.w3.org/2000/svg" xmlns:xlink="http://www.w3.org/1999/xlink" version="1.1" x="0px" y="0px" viewBox="0 0 33 41.25" enable-background="new 0 0 33 33" xml:space="preserve"><path d="M19.909,14.224c-0.42-0.213-2.162-0.99-2.977-1.35c-0.109-0.049-0.275-0.123-0.432-0.113  c-0.158-0.01-0.324,0.064-0.434,0.113c-0.814,0.359-2.557,1.137-2.977,1.35c-0.264,0.135-0.375,0.334-0.357,0.609  c0.088,1.293,0.557,5.135,3.373,6.492c0.137,0.066,0.271,0.088,0.395,0.086c0.121,0.002,0.256-0.02,0.393-0.086  c2.816-1.357,3.287-5.199,3.373-6.492C20.284,14.558,20.173,14.358,19.909,14.224z"/><path d="M20.929,17.253c-0.549,2.016-1.654,4.314-3.91,5.404c-0.182,0.086-0.359,0.115-0.518,0.113  c-0.16,0.002-0.338-0.027-0.518-0.113c-2.254-1.088-3.361-3.385-3.91-5.398c-2.793,0.26-5.48,0.764-7.986,1.496v5.07h24.826v-5.082  C26.411,18.011,23.726,17.509,20.929,17.253z"/><path d="M3.411,17.81c2.633-0.799,5.467-1.346,8.41-1.627c-0.164-0.848-0.238-1.584-0.27-2.057  c-0.025-0.363,0.123-0.625,0.469-0.801c0.551-0.279,2.84-1.301,3.912-1.775c0.143-0.063,0.361-0.158,0.568-0.148  c0.205-0.01,0.424,0.086,0.566,0.148c1.072,0.475,3.361,1.496,3.912,1.775c0.346,0.176,0.494,0.438,0.469,0.801  c-0.031,0.471-0.105,1.205-0.27,2.051c2.953,0.279,5.783,0.83,8.414,1.631c2.564-1.797,3.648-4.734,2.369-5.176  C21.946,9.177,18.128,3.013,16.501,2.333c-1.629,0.68-5.447,6.844-15.463,10.299C-0.241,13.073,0.845,16.015,3.411,17.81z"/><path d="M4.167,24.921c0.598,0.723,4.926,5.625,12.334,5.746c7.406-0.121,11.734-5.023,12.332-5.746H4.167z"/><text x="0" y="48" fill="#000000" font-size="5px" font-weight="bold" font-family="'Helvetica Neue', Helvetica, Arial-Unicode, Arial, Sans-serif">Created by Minh Do</text><text x="0" y="53" fill="#000000" font-size="5px" font-weight="bold" font-family="'Helvetica Neue', Helvetica, Arial-Unicode, Arial, Sans-serif">from the Noun Project</text></svg>