<svg xmlns="http://www.w3.org/2000/svg" xmlns:xlink="http://www.w3.org/1999/xlink" version="1.1" preserveAspectRatio="none" x="0px" y="0px" viewBox="0 0 100 125"><defs><g id="a"><path fill="#fff" stroke="none" d=" M 87 14.05 Q 87 11.9 84.9 10.35 82.7 9.15 80.75 10.25 77.7 11.8 75.3 12.5 72.25 13.35 67.65 13.35 62.65 13.35 59.25 12.2 57.1 11.7 53.4 9.65 49.5 7.65 46.15 6.4 41.15 4.85 35.2 5 28.9 5.15 21.1 7.55 L 18.35 8.55 Q 13.1 10.8 13.1 16.85 L 13 90.8 Q 13 92.65 14.25 93.75 15.45 95 17.25 95 18.95 95 20.25 93.75 21.5 92.65 21.5 90.8 L 21.5 56.25 Q 25.15 54.45 27.1 53.85 30.8 52.75 35.2 52.75 39.7 52.75 43.45 53.85 45.65 54.65 49.4 56.55 53.45 58.85 56.7 59.8 61.4 61.2 67.65 61.2 76.95 61.2 84.55 57.1 87 56 87 53.45 L 87 14.05 Z"/></g></defs><g transform="matrix( 1, 0, 0, 1, 0,0) "><use xlink:href="#a"/></g></svg>