<svg xmlns="http://www.w3.org/2000/svg" xmlns:xlink="http://www.w3.org/1999/xlink" version="1.1" preserveAspectRatio="none" x="0px" y="0px" viewBox="0 0 100 125"><defs><g id="a"><path fill="#0036a0" stroke="none" d=" M 87 14.05 Q 87 11.8 84.9 10.35 82.75 9.1 80.75 10.25 77.6 11.8 75.35 12.5 72.05 13.35 67.65 13.35 62.8 13.35 59.25 12.2 57.1 11.65 53.4 9.65 49 7.4 46.15 6.4 41.3 4.85 35.2 5 28.9 5.15 21.1 7.55 L 18.4 8.55 Q 13.1 10.8 13.1 16.85 L 13 90.8 Q 13 92.6 14.25 93.75 15.45 95 17.25 95 18.95 95 20.25 93.75 21.55 92.6 21.55 90.8 L 21.55 56.25 Q 25.1 54.4 27.1 53.85 30.65 52.75 35.2 52.75 39.9 52.75 43.45 53.85 45.6 54.55 49.4 56.55 53.4 58.8 56.7 59.8 61.55 61.2 67.65 61.2 76.9 61.2 84.6 57.1 87 55.95 87 53.45 L 87 14.05 M 67.65 21.8 Q 73.45 21.8 78.45 20.35 L 78.45 50.75 Q 73.45 52.75 67.65 52.75 62.8 52.75 59.25 51.6 57.1 51.05 53.4 49.05 49 46.8 46.15 45.85 41.3 44.3 35.2 44.3 27.35 44.3 21.55 46.8 L 21.55 16.85 Q 25.1 15 27.1 14.45 30.65 13.35 35.2 13.35 39.9 13.35 43.45 14.45 45.6 15.15 49.4 17.15 53.4 19.4 56.7 20.35 61.55 21.8 67.65 21.8 Z"/></g></defs><g transform="matrix( 1, 0, 0, 1, 0,0) "><use xlink:href="#a"/></g></svg>