<svg xmlns="http://www.w3.org/2000/svg" data-name="Layer 1" viewBox="0 0 80 100" x="0px" y="0px"><title>temporarry-access-password</title><path d="M71,33H41.71A19.94,19.94,0,1,0,43,40a19.8,19.8,0,0,0-.25-3H71a2,2,0,0,1,2,2v9a2,2,0,0,1-4,0V45a2,2,0,0,0-2-2H61a2,2,0,0,0-2,2v3a2,2,0,0,1-4,0V45a2,2,0,0,0-2-2H47a2,2,0,0,0,0,4h4v1a6,6,0,0,0,12,0V47h2v1a6,6,0,0,0,12,0V39A6,6,0,0,0,71,33ZM23,56A16,16,0,1,1,39,40,16,16,0,0,1,23,56Z"/><path d="M25,39.17V30a2,2,0,0,0-4,0V40a2,2,0,0,0,.59,1.42l6,6a2,2,0,1,0,2.82-2.82Z"/></svg>